<svg xmlns="http://www.w3.org/2000/svg" width="235" height="108" viewBox="0 0 235 108">
  <g id="logo" transform="translate(-213 -213)">
    <text id="the" transform="translate(213 251)" fill="#fffcfc" font-size="48" font-family="Allura-Regular, Allura" letter-spacing="0.048em"><tspan x="0" y="0">the</tspan></text>
    <text id="YOGA" transform="translate(213 305)" fill="#fffcfc" font-size="64" font-family="Salsa-Regular, Salsa" letter-spacing="0.05em"><tspan x="0" y="0">YOGA</tspan></text>
    <g id="ロータスアイコン2" transform="translate(384 14.619)">
      <path id="パス_1" data-name="パス 1" d="M63.583,267.472a8.581,8.581,0,0,0-3.614-2.512,13.034,13.034,0,0,0-4.553-.748,18.21,18.21,0,0,0-2.731.206,29.474,29.474,0,0,0,.36-4.559,27.265,27.265,0,0,0-1.29-8.348l-.3-.939-.895.077a23.193,23.193,0,0,0-10.513,3.826c-1.546-3.71-4.933-8.3-8.045-10.242-3.114,1.945-6.5,6.532-8.047,10.242a23.192,23.192,0,0,0-10.513-3.826l-.895-.077-.3.939a27.3,27.3,0,0,0-1.29,8.348,29.457,29.457,0,0,0,.36,4.559,18.207,18.207,0,0,0-2.73-.206,13.033,13.033,0,0,0-4.554.748,8.581,8.581,0,0,0-3.614,2.512l-.418.5.14.671c1.7,8.166,5.2,13.679,9.862,17.028s10.351,4.56,16.449,4.56c1.615,0,3.265-.09,4.925-.245.043.011.576.008.624.011s.58,0,.622-.011c1.661.155,3.311.245,4.925.245,6.1,0,11.791-1.2,16.451-4.56s8.166-8.862,9.861-17.028l.14-.671ZM42.811,268a39.816,39.816,0,0,0-1.87-11.118,21.442,21.442,0,0,1,8.922-3.542,24.844,24.844,0,0,1,.86,6.519,28.009,28.009,0,0,1-.477,5.048c-.186.966-.418,1.92-.686,2.86a33.708,33.708,0,0,1-2.869,6.853,33.98,33.98,0,0,1-6.122,8.051,34.69,34.69,0,0,0,2.23-11.748q.035-.735.035-1.468C42.834,268.979,42.823,268.489,42.811,268Zm-28.673-14.66a21.442,21.442,0,0,1,8.922,3.542A39.821,39.821,0,0,0,21.189,268c-.012.49-.024.98-.024,1.456s.011.979.035,1.468a34.668,34.668,0,0,0,2.231,11.748,34.667,34.667,0,0,1-8.992-14.9c-.267-.94-.5-1.894-.686-2.86a28.01,28.01,0,0,1-.476-5.048A24.85,24.85,0,0,1,14.138,253.339Zm-2.869,30.167c-3.986-2.884-7.053-7.471-8.714-14.748a6.323,6.323,0,0,1,2.218-1.353,10.858,10.858,0,0,1,3.811-.618,16.448,16.448,0,0,1,3.276.335A37.062,37.062,0,0,0,18.1,280.286a30.591,30.591,0,0,0,6.261,6.4,14.883,14.883,0,0,0,1.453.954C20.236,287.565,15.242,286.393,11.269,283.507Zm24.27,2.6c-.035.025-.069.065-.1.091a5.148,5.148,0,0,1-2.324,1.159c-.057.014-.1.014-.162.027H32.9c-.047.012-.105.012-.163.025h-.012c-.079.007-.645.011-.726.016s-.649-.009-.729-.016h-.011c-.059-.012-.117-.012-.164-.025h-.046c-.058-.014-.1-.014-.162-.027a5.152,5.152,0,0,1-2.324-1.159c-.035-.026-.068-.066-.1-.091a14.135,14.135,0,0,1-3.636-6.557,32.982,32.982,0,0,1-1.208-6.9c-.082-1.043-.129-2.1-.129-3.181v-.012a39.078,39.078,0,0,1,1.557-11.092c.174-.579.361-1.133.558-1.674.1-.27.209-.541.326-.811A20.323,20.323,0,0,1,32,247.543a20.337,20.337,0,0,1,6.07,8.335c.116.27.221.541.325.811.2.541.384,1.1.558,1.674a39.078,39.078,0,0,1,1.557,11.092v.012c0,1.081-.047,2.138-.129,3.181a32.982,32.982,0,0,1-1.208,6.9A14.133,14.133,0,0,1,35.539,286.11Zm17.192-2.6c-3.972,2.886-8.968,4.059-14.544,4.137a14.756,14.756,0,0,0,1.453-.954,30.582,30.582,0,0,0,6.261-6.4,37.064,37.064,0,0,0,6.239-13.163,16.451,16.451,0,0,1,3.277-.335,10.851,10.851,0,0,1,3.81.618,6.323,6.323,0,0,1,2.218,1.353C59.784,276.036,56.717,280.623,52.731,283.507Z" fill="#fffcfc"/>
    </g>
  </g>
</svg>
