<svg xmlns="http://www.w3.org/2000/svg" width="234.68" height="83.76" viewBox="0 0 234.68 83.76">
  <g id="logo" transform="translate(-213.32 -222.008)">
    <path id="パス_6" data-name="パス 6" d="M4.272.48A3.175,3.175,0,0,1,2.712.1,2.36,2.36,0,0,1,1.68-1.344a1.9,1.9,0,0,1-.072-.288,2.067,2.067,0,0,1-.024-.336,8.674,8.674,0,0,1,.432-2.4A20.783,20.783,0,0,1,3.072-7.152q-.288.384-.672.936T1.3-4.8a.6.6,0,0,1-.432.192q-.336,0-.336-.384a.651.651,0,0,1,.192-.48L2.952-8.3a16.687,16.687,0,0,0,1.464-2.112,2.314,2.314,0,0,1,.288-.6q.288-.5.768-1.416-.384.048-.648.072t-.456.024a.727.727,0,0,1-.576-.288.643.643,0,0,1-.048-.72A1.158,1.158,0,0,1,4.8-14.112q.816-.1,1.44-.144a.193.193,0,0,1,.192-.1q.576-1.056,1.1-2.064t.888-1.68a6.049,6.049,0,0,0,.36-.72q.96-1.536,1.248-2.04a1.132,1.132,0,0,1,.768-.6,4.538,4.538,0,0,1,1.128.048,1.036,1.036,0,0,1,.792.432.778.778,0,0,1,.144.48,1.952,1.952,0,0,1-.192.84,3.293,3.293,0,0,1-.384.648.988.988,0,0,1-.5.456,1.139,1.139,0,0,0-.552.6q-.48.912-1.056,1.968t-1.2,2.016l.576-.048q1.152-.1,2.184-.24a13.8,13.8,0,0,1,2.376-.1,1.916,1.916,0,0,1,.5.072q.264.072.264.216,0,.192-1.248.528a10.966,10.966,0,0,1-2.088.408q-1.608.216-3.288.408-.48.912-.864,1.512t-.528.888q-1.056,2.208-1.9,4.008A9.235,9.235,0,0,0,4.032-3.36,1.488,1.488,0,0,0,3.984-3v.36q0,1.92,1.248,1.92A3.767,3.767,0,0,0,7.2-1.56,19.514,19.514,0,0,0,9.648-3.624q1.248-1.224,2.28-2.352a16.273,16.273,0,0,0,1.416-1.7.415.415,0,0,1,.288-.144.387.387,0,0,1,.312.144.359.359,0,0,1,.024.384A12.431,12.431,0,0,1,12.5-5.256a32.335,32.335,0,0,1-2.3,2.448A22.889,22.889,0,0,1,7.728-.72a6.2,6.2,0,0,1-1.56.84A5.244,5.244,0,0,1,4.272.48ZM15.456.624q-.384,0-.192-.336.1-.288.5-1.44t.984-2.784q.576-1.632,1.2-3.336T19.1-10.32q-.336.432-1.032,1.248T16.608-7.344q-.768.912-1.44,1.584-.144.144-.192.144-.144,0-.144-.288A2.014,2.014,0,0,1,15.12-6.96Q16.176-8.3,17.16-9.48t1.8-2.232a.836.836,0,0,1-.48-.72.594.594,0,0,1,.672-.672.786.786,0,0,1,.432.1.138.138,0,0,0,.1.048q.048,0,.1.1.24-.336.408-.624a5.671,5.671,0,0,0,.312-.624q.192-.432.792-1.656t1.512-2.9q.912-1.68,2.088-3.48a29.841,29.841,0,0,1,2.544-3.36,14.07,14.07,0,0,1,2.832-2.52,5.409,5.409,0,0,1,3-.96,3.093,3.093,0,0,1,.384.024,3.239,3.239,0,0,1,.384.072,2.777,2.777,0,0,1,1.68.84,2.2,2.2,0,0,1,.48,1.416,3.876,3.876,0,0,1-.216,1.224,6.116,6.116,0,0,1-.6,1.272,18.523,18.523,0,0,1-2.544,3.384A41.944,41.944,0,0,1,29.3-17.4q-1.944,1.656-3.888,3.216t-3.624,2.952a39.162,39.162,0,0,0-1.776,4.344q-.624,1.9-.96,3.048.528-.672,1.584-1.92t2.4-2.688q1.344-1.44,2.784-2.76a21.1,21.1,0,0,1,2.736-2.16,4.3,4.3,0,0,1,2.208-.84q1.152,0,1.152,1.2a5.12,5.12,0,0,1-.816,2.544q-.816,1.392-1.344,2.352a20.7,20.7,0,0,0-1.08,2.664,11.608,11.608,0,0,0-.5,2.088,1.488,1.488,0,0,0-.048.36v.36q0,1.92,1.344,1.92a3.7,3.7,0,0,0,1.92-.864A22.682,22.682,0,0,0,33.84-3.648q1.248-1.2,2.28-2.328a16.274,16.274,0,0,0,1.416-1.7.461.461,0,0,1,.336-.144.323.323,0,0,1,.288.144.4.4,0,0,1,0,.384,16.874,16.874,0,0,1-1.488,2.04,31.4,31.4,0,0,1-2.256,2.448A21.316,21.316,0,0,1,31.968-.72,6.03,6.03,0,0,1,30.36.12a5.631,5.631,0,0,1-1.944.36A3.124,3.124,0,0,1,26.928.1a2.327,2.327,0,0,1-1.056-1.44,3.946,3.946,0,0,1-.144-1.2v-.5a3.36,3.36,0,0,1,.048-.552,10.249,10.249,0,0,1,1.032-3.24q.84-1.7,1.56-3.048.192-.384.312-.672a1.306,1.306,0,0,0,.12-.48q0-.384-.336-.384a2.461,2.461,0,0,0-1.056.432A14.474,14.474,0,0,0,25.488-9.5a18.228,18.228,0,0,0-2.232,2.376q-1.176,1.464-2.3,3t-1.968,2.64a5.89,5.89,0,0,1-1.176,1.3,9.25,9.25,0,0,1-1.1.48A4.02,4.02,0,0,1,15.456.624ZM22.7-13.392a45.506,45.506,0,0,0,4.176-3.24,45.489,45.489,0,0,0,4.248-4.176,21.517,21.517,0,0,0,3.048-4.248,4.191,4.191,0,0,0,.576-1.824q0-.816-.72-.816a2.155,2.155,0,0,0-.768.168,4.456,4.456,0,0,0-1.008.6A23.64,23.64,0,0,0,26.832-21,61.639,61.639,0,0,0,22.7-13.392ZM43.584.72A6.824,6.824,0,0,1,39.84-.288,3.391,3.391,0,0,1,38.256-3.36a7.144,7.144,0,0,1,.672-2.688A10.012,10.012,0,0,1,40.7-8.592,24.576,24.576,0,0,1,43.728-11.4a20.255,20.255,0,0,1,3.5-2.256,7.307,7.307,0,0,1,3.216-.888,3.023,3.023,0,0,1,.96.144,1.885,1.885,0,0,1,1.128.912,2.864,2.864,0,0,1,.312,1.3,3.77,3.77,0,0,1-.192,1.2,4.206,4.206,0,0,1-.48,1.008A8.022,8.022,0,0,1,49.7-7.68,16.112,16.112,0,0,1,46.44-6.1a11.989,11.989,0,0,1-2.712.672h-.1q-.624,0-.624-.384,0-.24.384-.24a7.631,7.631,0,0,0,2.9-1.08,24.146,24.146,0,0,0,3.1-2.04,14.839,14.839,0,0,0,1.368-1.344,2.541,2.541,0,0,0,.792-1.68q0-.864-.816-.864a2.28,2.28,0,0,0-.888.192q-.456.192-.744.288a15.153,15.153,0,0,0-3.072,2.088A21.165,21.165,0,0,0,42.984-7.32a10.747,10.747,0,0,0-1.9,3.528,3.4,3.4,0,0,0-.192.744,5.267,5.267,0,0,0-.048.7A1.792,1.792,0,0,0,41.592-.72a3.25,3.25,0,0,0,1.8.48,8.5,8.5,0,0,0,3.264-.7,17.257,17.257,0,0,0,3.264-1.8,23.719,23.719,0,0,0,2.9-2.376,21.766,21.766,0,0,0,2.232-2.472.5.5,0,0,1,.336-.216q.192-.024.24.072a.241.241,0,0,1,.192.264.9.9,0,0,1-.1.408,25.018,25.018,0,0,1-3.24,3.648A18.465,18.465,0,0,1,48.312-.456,10.189,10.189,0,0,1,43.584.72Z" transform="translate(213 251)" fill="#36312f"/>
    <path id="パス_5" data-name="パス 5" d="M.32-42.112Q1.856-45.44,5.952-45.44q7.616,0,14.4,21.888A89.221,89.221,0,0,0,27.168-35.68q2.848-6.176,2.848-10.144,6.784,0,6.784,3.584,0,2.5-3.072,7.424T27.1-24.672q-3.552,5.216-4.192,7.648-.192,2.5-.192,6.144a78.486,78.486,0,0,0,.9,10.112A12.292,12.292,0,0,1,19.264,0a5.906,5.906,0,0,1-4-1.472,4.739,4.739,0,0,1-1.7-3.744q0-2.272.768-11.616Q9.408-36.032.32-42.112ZM74.3-23.3q0-7.616-3.1-12.32t-9.7-4.7a10.684,10.684,0,0,0-7.04,2.56,22.206,22.206,0,0,0-2.72,7.232,40.546,40.546,0,0,0-.992,8.64q0,7.552,3.072,12.1t9.728,4.544A7.938,7.938,0,0,0,69.76-8.192Q74.3-13.5,74.3-23.3ZM61.376.768q-9.344,0-14.208-6.176T42.3-21.6A26.357,26.357,0,0,1,48.32-38.912a19,19,0,0,1,15.328-7.3q9.312,0,14.208,6.272t4.9,16.32A25.9,25.9,0,0,1,76.736-6.4,19.165,19.165,0,0,1,61.376.768Zm53.248-22.016,6.848-.512q3.84,0,3.84,3.9a64.325,64.325,0,0,1-.576,6.976,66.454,66.454,0,0,0-.576,7.68q-1.6.256-7.136,1.92A33.333,33.333,0,0,1,107.776.384q-9.088,0-13.728-5.632t-4.64-15.36A31.189,31.189,0,0,1,91.936-33.28a22.314,22.314,0,0,1,7.52-9.344,18.5,18.5,0,0,1,11.04-3.584,17.334,17.334,0,0,1,10.112,2.816,8.809,8.809,0,0,1,4.064,7.616,6.679,6.679,0,0,1-1.568,4.512,5.041,5.041,0,0,1-4,1.824,7.1,7.1,0,0,1-3.392-.576,13.992,13.992,0,0,0,.192-2.3,7.985,7.985,0,0,0-1.92-5.536A6.924,6.924,0,0,0,108.544-40a10.861,10.861,0,0,0-6.656,2.368,20.062,20.062,0,0,0-2.88,7.168,40.124,40.124,0,0,0-1.024,8.832q0,6.912,2.688,11.36t8.512,4.448a14.065,14.065,0,0,0,8-2.5q.256-2.5.256-7.168a14.953,14.953,0,0,1-3.968.768q-3.52,0-3.52-3.712a10.1,10.1,0,0,1,.64-3.392A12.764,12.764,0,0,0,114.624-21.248Zm31.424-23.68a15.542,15.542,0,0,1,4.864-.9,6.247,6.247,0,0,1,5.184,2.336,16.948,16.948,0,0,1,2.88,6.624q.32,1.28,1.312,5.632t1.632,7.04A132.546,132.546,0,0,0,165.536-11.2a15.59,15.59,0,0,0,5.216,7.36,6.468,6.468,0,0,1-2.528,3.072A6.82,6.82,0,0,1,164.416.384q-4.672,0-6.848-7.04-1.024-3.264-1.856-6.4a17.235,17.235,0,0,1-5.536.768,57.363,57.363,0,0,1-8.1-.7A51.8,51.8,0,0,0,140.1-1.344a8.207,8.207,0,0,0,.064,1.216A21.166,21.166,0,0,1,137.344,0a5.3,5.3,0,0,1-3.488-1.248,4.356,4.356,0,0,1-1.5-3.552q0-3.2,6.144-18.752T146.048-44.928Zm-2.5,26.56a42.016,42.016,0,0,0,5.216.32,30.184,30.184,0,0,0,5.664-.576q-.576-2.624-3.9-20.1Q146.56-28.416,143.552-18.368Z" transform="translate(213 305)" fill="#36312f"/>
    <g id="ロータスアイコン2" transform="translate(384 14.619)">
      <path id="パス_1" data-name="パス 1" d="M63.583,267.472a8.581,8.581,0,0,0-3.614-2.512,13.034,13.034,0,0,0-4.553-.748,18.21,18.21,0,0,0-2.731.206,29.474,29.474,0,0,0,.36-4.559,27.265,27.265,0,0,0-1.29-8.348l-.3-.939-.895.077a23.193,23.193,0,0,0-10.513,3.826c-1.546-3.71-4.933-8.3-8.045-10.242-3.114,1.945-6.5,6.532-8.047,10.242a23.192,23.192,0,0,0-10.513-3.826l-.895-.077-.3.939a27.3,27.3,0,0,0-1.29,8.348,29.457,29.457,0,0,0,.36,4.559,18.207,18.207,0,0,0-2.73-.206,13.033,13.033,0,0,0-4.554.748,8.581,8.581,0,0,0-3.614,2.512l-.418.5.14.671c1.7,8.166,5.2,13.679,9.862,17.028s10.351,4.56,16.449,4.56c1.615,0,3.265-.09,4.925-.245.043.011.576.008.624.011s.58,0,.622-.011c1.661.155,3.311.245,4.925.245,6.1,0,11.791-1.2,16.451-4.56s8.166-8.862,9.861-17.028l.14-.671ZM42.811,268a39.816,39.816,0,0,0-1.87-11.118,21.442,21.442,0,0,1,8.922-3.542,24.844,24.844,0,0,1,.86,6.519,28.009,28.009,0,0,1-.477,5.048c-.186.966-.418,1.92-.686,2.86a33.708,33.708,0,0,1-2.869,6.853,33.98,33.98,0,0,1-6.122,8.051,34.69,34.69,0,0,0,2.23-11.748q.035-.735.035-1.468C42.834,268.979,42.823,268.489,42.811,268Zm-28.673-14.66a21.442,21.442,0,0,1,8.922,3.542A39.821,39.821,0,0,0,21.189,268c-.012.49-.024.98-.024,1.456s.011.979.035,1.468a34.668,34.668,0,0,0,2.231,11.748,34.667,34.667,0,0,1-8.992-14.9c-.267-.94-.5-1.894-.686-2.86a28.01,28.01,0,0,1-.476-5.048A24.85,24.85,0,0,1,14.138,253.339Zm-2.869,30.167c-3.986-2.884-7.053-7.471-8.714-14.748a6.323,6.323,0,0,1,2.218-1.353,10.858,10.858,0,0,1,3.811-.618,16.448,16.448,0,0,1,3.276.335A37.062,37.062,0,0,0,18.1,280.286a30.591,30.591,0,0,0,6.261,6.4,14.883,14.883,0,0,0,1.453.954C20.236,287.565,15.242,286.393,11.269,283.507Zm24.27,2.6c-.035.025-.069.065-.1.091a5.148,5.148,0,0,1-2.324,1.159c-.057.014-.1.014-.162.027H32.9c-.047.012-.105.012-.163.025h-.012c-.079.007-.645.011-.726.016s-.649-.009-.729-.016h-.011c-.059-.012-.117-.012-.164-.025h-.046c-.058-.014-.1-.014-.162-.027a5.152,5.152,0,0,1-2.324-1.159c-.035-.026-.068-.066-.1-.091a14.135,14.135,0,0,1-3.636-6.557,32.982,32.982,0,0,1-1.208-6.9c-.082-1.043-.129-2.1-.129-3.181v-.012a39.078,39.078,0,0,1,1.557-11.092c.174-.579.361-1.133.558-1.674.1-.27.209-.541.326-.811A20.323,20.323,0,0,1,32,247.543a20.337,20.337,0,0,1,6.07,8.335c.116.27.221.541.325.811.2.541.384,1.1.558,1.674a39.078,39.078,0,0,1,1.557,11.092v.012c0,1.081-.047,2.138-.129,3.181a32.982,32.982,0,0,1-1.208,6.9A14.133,14.133,0,0,1,35.539,286.11Zm17.192-2.6c-3.972,2.886-8.968,4.059-14.544,4.137a14.756,14.756,0,0,0,1.453-.954,30.582,30.582,0,0,0,6.261-6.4,37.064,37.064,0,0,0,6.239-13.163,16.451,16.451,0,0,1,3.277-.335,10.851,10.851,0,0,1,3.81.618,6.323,6.323,0,0,1,2.218,1.353C59.784,276.036,56.717,280.623,52.731,283.507Z" fill="#36312f"/>
    </g>
  </g>
</svg>
