<svg xmlns="http://www.w3.org/2000/svg" width="443.072" height="133.152" viewBox="0 0 443.072 133.152">
  <g id="trial_price" transform="translate(-519.544 -300.208)">
    <path id="パス_11" data-name="パス 11" d="M25.28-3.9h.064q.512-.064.512-.416a.941.941,0,0,0-.352-.656,4.32,4.32,0,0,0-.784-.592,1.535,1.535,0,0,0-.752-.256.549.549,0,0,0-.224.032,5.01,5.01,0,0,1-1.568.32l-1.632.1v-2.4q0-1.056.016-2.24t.016-2.176q0-.544-.032-1.216T20.5-14.56l-.016-.48q.256.608.656,1.456a9.372,9.372,0,0,0,.688,1.264q1.856,2.72,3.7,4.992a52.332,52.332,0,0,0,3.952,4.352.815.815,0,0,0,.544.224,1.262,1.262,0,0,0,.72-.256,3.055,3.055,0,0,0,.608-.544.92.92,0,0,0,.24-.384q0-.256-.416-.576a46.622,46.622,0,0,1-5.28-5.376A55.621,55.621,0,0,1,21.024-16.8l7.488-.416q.576-.064.576-.352a.977.977,0,0,0-.336-.608,3.423,3.423,0,0,0-.784-.608,1.593,1.593,0,0,0-.736-.256.666.666,0,0,0-.256.032,3.43,3.43,0,0,1-.688.192,8.216,8.216,0,0,1-.88.1l-4.832.288.032-6.24a.712.712,0,0,0-.4-.624,3.365,3.365,0,0,0-.9-.368,3.343,3.343,0,0,0-.784-.128q-.416,0-.416.256a.922.922,0,0,0,.192.448,1.507,1.507,0,0,1,.32.64,3.421,3.421,0,0,1,.064.672l-.032,5.44-6.24.352H12a5.959,5.959,0,0,1-.624-.032q-.3-.032-.656-.1a.832.832,0,0,0-.256-.032q-.224,0-.224.192a1.978,1.978,0,0,0,.192.512,2.4,2.4,0,0,0,.608.784,1.535,1.535,0,0,0,1.056.368q.256,0,.56-.016t.688-.048l3.968-.224A50.793,50.793,0,0,1,13.872-9.1,49.411,49.411,0,0,1,9.856-3.04a1.794,1.794,0,0,0-.48.96q0,.224.192.224.352,0,1.216-.8a22.825,22.825,0,0,0,2-2.176q1.136-1.376,2.32-3.12a33.713,33.713,0,0,0,2.16-3.664,20.21,20.21,0,0,0,1.488-3.776l-.032.592q-.032.592-.064,1.392t-.032,1.44v2.144q0,1.152-.016,2.192t-.016,1.7v.656L15.9-5.152a1.477,1.477,0,0,0-.208.016,1.7,1.7,0,0,1-.24.016,4.1,4.1,0,0,1-.608-.048q-.32-.048-.672-.112a.832.832,0,0,0-.256-.032q-.192,0-.192.16a2.055,2.055,0,0,0,.24.656,2.246,2.246,0,0,0,.656.816,1.929,1.929,0,0,0,1.12.256h.48q.256,0,.576-.032l1.76-.1v2.4q0,.576-.064,1.216t-.16,1.376a.526.526,0,0,1-.016.128A.526.526,0,0,0,18.3,1.7a.864.864,0,0,0,.3.592A2.963,2.963,0,0,0,19.3,2.8a1.424,1.424,0,0,0,.64.208q.576,0,.576-.9l.032-5.76ZM6.3-14.5,6.176-.736a8.148,8.148,0,0,1-.048.928q-.048.416-.112.864a.6.6,0,0,0-.032.192V1.44a.946.946,0,0,0,.32.736,1.8,1.8,0,0,0,.7.4,2.286,2.286,0,0,0,.544.112q.544,0,.544-.608v-19.3q.832-1.376,1.536-2.8t1.136-2.5a5.312,5.312,0,0,0,.432-1.36.949.949,0,0,0-.368-.688,3.038,3.038,0,0,0-.848-.544,2.153,2.153,0,0,0-.832-.208q-.384,0-.384.288a.356.356,0,0,0,.032.16,2.326,2.326,0,0,1,.1.672,6.373,6.373,0,0,1-.5,1.712q-.5,1.3-1.44,3.2T4.64-15.1q-1.376,2.272-3.168,4.672a1.628,1.628,0,0,0-.416.864q0,.224.192.224.288,0,1.056-.656a20.772,20.772,0,0,0,1.824-1.824Q5.184-12.992,6.3-14.5Zm50.08,7.68,4.928-.224q.288-.032.5-.064a.211.211,0,0,0,.208-.224q0-.32-.768-1.216l.576-3.2a.7.7,0,0,1,.128-.288.468.468,0,0,0,.1-.288,1.1,1.1,0,0,0-.384-.656,1.276,1.276,0,0,0-.96-.4h-.256l-4.16.224v-2.016l2.624-.16q.7-.064.7-.448a.824.824,0,0,0-.352-.64,3.4,3.4,0,0,0-.736-.464,1.78,1.78,0,0,0-.48-.176.516.516,0,0,0-.224.064,1.953,1.953,0,0,1-.528.16q-.24.032-.592.064l-4.032.256h-.256a5.394,5.394,0,0,1-1.056-.1,26.619,26.619,0,0,0,1.936-2.16,27.575,27.575,0,0,0,1.712-2.384q1.984,2.176,4.064,4.176t4.064,3.664a.524.524,0,0,0,.384.16,1.462,1.462,0,0,0,.672-.24,4.328,4.328,0,0,0,.736-.528q.32-.288.32-.416t-.416-.416a32.734,32.734,0,0,1-4.688-3.68q-2.128-2.016-4.208-4.256a4.718,4.718,0,0,0,.464-.768,1.419,1.419,0,0,0,.144-.416,1.034,1.034,0,0,0-.432-.7,4.818,4.818,0,0,0-.944-.656,1.936,1.936,0,0,0-.7-.272q-.352,0-.352.608a5.186,5.186,0,0,1-.64,2.112,22.273,22.273,0,0,1-1.728,2.88q-1.088,1.568-2.416,3.152t-2.7,2.928a2.916,2.916,0,0,0-.512.576.851.851,0,0,0-.16.384.141.141,0,0,0,.16.16,1.94,1.94,0,0,0,.9-.352l.16-.1A18.126,18.126,0,0,0,49.12-14.56q.928-.768,1.824-1.632.32.9.768,1.072a2.223,2.223,0,0,0,.8.176h.432a3.279,3.279,0,0,0,.464-.032l.96-.064q.032.512.032,1.008v.976l-3.648.192a9.437,9.437,0,0,0-1.952-.512q-.224,0-.224.16a1.246,1.246,0,0,0,.16.448,3.841,3.841,0,0,1,.272.752,5.071,5.071,0,0,1,.144.752l.224,3.232a1.166,1.166,0,0,0,.016.192,1.166,1.166,0,0,1,.016.192q0,.128-.016.3t-.048.4v.224a.962.962,0,0,0,.464.784,1.557,1.557,0,0,0,.912.336q.544,0,.544-.672V-6.56l2.4-.128q-.192.64-.528,1.6A11.594,11.594,0,0,1,52.08-2.944,14.086,14.086,0,0,1,50.112-.48,17.566,17.566,0,0,1,46.88,2.048q-.64.416-.64.7,0,.16.288.16A2.213,2.213,0,0,0,47.3,2.72,12.619,12.619,0,0,0,50.64.9a13.3,13.3,0,0,0,2.336-2.3A13.121,13.121,0,0,0,54.464-3.76,12.386,12.386,0,0,0,55.232-5.7,34.425,34.425,0,0,0,57.76-2.24a36.369,36.369,0,0,0,2.5,2.72,26.229,26.229,0,0,0,2,1.792,2.837,2.837,0,0,0,1.04.64,2.669,2.669,0,0,0,1.408-.8q.288-.256.288-.384,0-.224-.576-.576A28.417,28.417,0,0,1,61.28-1.136,21.361,21.361,0,0,1,58.736-3.7Q57.568-5.088,56.384-6.816ZM38.848-9.152,45.7-9.5q-.1,1.568-.288,3.424t-.464,3.488A11.43,11.43,0,0,1,44.256,0q0,.16-.192.16A.356.356,0,0,1,43.9.128a10.458,10.458,0,0,1-1.456-.56q-.88-.4-1.552-.72a1.564,1.564,0,0,0-.464-.208,1.57,1.57,0,0,0-.336-.048q-.192,0-.192.16,0,.32.576.9A14.438,14.438,0,0,0,41.84.832q.784.608,1.472,1.04a2.368,2.368,0,0,0,.944.432,1.379,1.379,0,0,0,.768-.288,2.21,2.21,0,0,0,.64-.656,5.541,5.541,0,0,0,.624-1.6,27.8,27.8,0,0,0,.592-3.344q.288-2.208.576-5.92a1.237,1.237,0,0,1,.112-.352.776.776,0,0,0,.08-.352.629.629,0,0,0-.112-.336,1.528,1.528,0,0,0-.464-.4.641.641,0,0,0-.336-.192,2.251,2.251,0,0,0-.4-.032H46.08l-2.88.16.032-2.72,3.04-.192q.576-.064.576-.384a.772.772,0,0,0-.272-.528,2.715,2.715,0,0,0-.624-.464,1.274,1.274,0,0,0-.544-.192.446.446,0,0,0-.192.032,5.271,5.271,0,0,1-.592.1q-.3.032-.56.064l-.832.064.032-2.5,3.1-.192q.576-.064.576-.352a1.111,1.111,0,0,0-.5-.768,1.478,1.478,0,0,0-.912-.416.355.355,0,0,0-.112.016.355.355,0,0,1-.112.016q-.32.064-.608.1t-.544.064l-.9.064.032-2.464,3.9-.288q.64-.064.64-.416a.755.755,0,0,0-.32-.56,3.707,3.707,0,0,0-.688-.464,1.428,1.428,0,0,0-.5-.192.142.142,0,0,0-.064.016.223.223,0,0,1-.1.016,11.2,11.2,0,0,1-1.12.192l-6.048.416a6.662,6.662,0,0,0-1.92-.64q-.288,0-.288.256a1.7,1.7,0,0,0,.16.544,4.267,4.267,0,0,1,.288,1.5l-.1,10.144q0,.384-.016.752a7.219,7.219,0,0,1-.112.912.318.318,0,0,0-.032.144v.144q0,.512.7.9a1.936,1.936,0,0,0,.64.192.4.4,0,0,0,.416-.24,1.7,1.7,0,0,0,.1-.624Zm2.816-12.416L41.632-19.1l-2.72.192.032-2.464ZM41.6-17.632v2.5l-2.72.128.032-2.464Zm-.032,4-.032,2.752-2.688.16L38.88-13.5ZM59.9-11.744l-.416,3.232-3.616.16q.128-.736.208-1.536t.112-1.7Zm-5.92,3.488-2.848.128-.192-3.2,3.392-.16q-.032.832-.112,1.648A14.883,14.883,0,0,1,53.984-8.256ZM45.024-5.12a3.345,3.345,0,0,0-.176-.672q-.176-.544-.448-1.2a9.709,9.709,0,0,0-.56-1.152q-.288-.5-.48-.5a1.9,1.9,0,0,0-.512.144q-.384.144-.384.432a.8.8,0,0,0,.1.352A11.639,11.639,0,0,1,43.072-6.5a13.879,13.879,0,0,1,.448,1.5q.128.576.448.576a2.65,2.65,0,0,0,.288-.064,1.784,1.784,0,0,0,.512-.224A.477.477,0,0,0,45.024-5.12Zm-2.24,1.152A6.427,6.427,0,0,0,42.5-5.344q-.288-1.024-.736-2.208-.192-.576-.48-.576a.937.937,0,0,0-.672.192.533.533,0,0,0-.192.352,1.535,1.535,0,0,0,.1.448,12.248,12.248,0,0,1,.4,1.456q.176.816.3,1.648a2.764,2.764,0,0,0,.144.544A.325.325,0,0,0,41.7-3.3a1.924,1.924,0,0,0,.32-.064.223.223,0,0,0,.1-.016.142.142,0,0,1,.064-.016Q42.784-3.616,42.784-3.968ZM40.32-3.04v-.224q-.1-.96-.272-1.952t-.4-1.888a1.984,1.984,0,0,0-.128-.384q-.064-.128-.32-.128-.672,0-.784.208a.816.816,0,0,0-.112.272v.144a.9.9,0,0,0,.032.208,18.068,18.068,0,0,1,.256,1.792q.1.992.128,1.888a4.042,4.042,0,0,0,.08.608q.048.192.432.192a.742.742,0,0,0,.144-.016.9.9,0,0,1,.176-.016Q40.32-2.464,40.32-3.04ZM36.16-.64q.384,0,.544-.608a25.518,25.518,0,0,0,.56-2.576q.24-1.424.368-2.544a.6.6,0,0,0,.032-.192v-.192a.436.436,0,0,0-.224-.432,1.464,1.464,0,0,0-.464-.144q-.24-.032-.3-.032-.416,0-.512.736a21.979,21.979,0,0,1-.48,2.448q-.32,1.264-.7,2.416a1.264,1.264,0,0,0-.048.192,1.006,1.006,0,0,0-.016.16q0,.32.432.544A1.78,1.78,0,0,0,36.16-.64ZM75.9-2.336v.16a3.7,3.7,0,0,0,.128.4,2.552,2.552,0,0,0,.4.72.865.865,0,0,0,.72.352.852.852,0,0,0,.384-.1,37.316,37.316,0,0,0,5.376-2.864A55.848,55.848,0,0,0,87.84-7.2a46.784,46.784,0,0,0,4.032-3.616,29.118,29.118,0,0,0,2.72-3.12,4.183,4.183,0,0,0,.992-2.032q0-.384-.256-.384-.384,0-.96.7a24.588,24.588,0,0,1-2.944,3.088A52.289,52.289,0,0,1,87.28-9.2q-2.288,1.68-4.64,3.12a41.51,41.51,0,0,1-4.464,2.4q0-1.088.016-2.752t.016-3.52V-18.4a1.942,1.942,0,0,0-.128-.752,1.153,1.153,0,0,0-.672-.528A4.278,4.278,0,0,0,76-20q-.608,0-.608.288v.032a1.03,1.03,0,0,0,.3.64,1.37,1.37,0,0,1,.3.928V-3.136a1.484,1.484,0,0,1-.048.416A1.347,1.347,0,0,0,75.9-2.336ZM118.272-9.28a3.617,3.617,0,0,0-.352-1.248q-.352-.832-.8-1.744t-.816-1.584q-.368-.672-.4-.736-.128-.16-.24-.288a.423.423,0,0,0-.336-.128,1.587,1.587,0,0,0-.624.192.615.615,0,0,0-.4.576.959.959,0,0,0,.16.512,12.87,12.87,0,0,1,.7,1.552q.352.912.656,1.776t.464,1.408q.192.7.768.7a1.3,1.3,0,0,0,.816-.32A.884.884,0,0,0,118.272-9.28Zm6.464-4.9a1.844,1.844,0,0,0-.672-.448,2.066,2.066,0,0,0-.8-.192.725.725,0,0,0-.256.048.2.2,0,0,0-.128.208.858.858,0,0,0,.1.336,1.094,1.094,0,0,1,.1.464.712.712,0,0,1-.064.32,27.054,27.054,0,0,1-2.784,5.648,29,29,0,0,1-3.216,4.1,24.932,24.932,0,0,1-2.9,2.64q-1.28.96-1.856,1.312-.832.48-.832.864,0,.224.384.224a4.586,4.586,0,0,0,1.456-.48,16.852,16.852,0,0,0,2.576-1.52,22.663,22.663,0,0,0,3.152-2.7,26.877,26.877,0,0,0,3.216-4.016,28.659,28.659,0,0,0,2.784-5.456q.064-.224.112-.368a.861.861,0,0,0,.048-.272.637.637,0,0,0-.112-.4A2.035,2.035,0,0,0,124.736-14.176Zm-13.152,6.5a3.271,3.271,0,0,0,.32.528.533.533,0,0,0,.448.208,1.7,1.7,0,0,0,.768-.24.8.8,0,0,0,.448-.752,1.205,1.205,0,0,0-.1-.48q-.352-.8-.88-1.792t-.992-1.808q-.464-.816-.688-1.136a.68.68,0,0,0-.608-.384,2.608,2.608,0,0,0-.576.144.577.577,0,0,0-.448.592.992.992,0,0,0,.192.544,12.374,12.374,0,0,1,.72,1.392l.8,1.76Q111.392-8.224,111.584-7.68Zm45.44-11.232.192-.416a.614.614,0,0,0,.192-.448,1.108,1.108,0,0,0-.56-.88,1.828,1.828,0,0,0-1.04-.4.142.142,0,0,0-.064.016.223.223,0,0,1-.1.016,1.642,1.642,0,0,0-.432.128,2.162,2.162,0,0,1-.592.128l-5.168.784q-2,.3-3.136.48t-1.648.24q-.512.064-.688.08t-.272.016h-.256q-.16-.032-.512-.128a2.218,2.218,0,0,0-.512-.1H142.4q-.352.032-.352.352a1.728,1.728,0,0,0,.224.7,2.823,2.823,0,0,0,.624.816,1.239,1.239,0,0,0,.848.368q.16,0,.32-.016t.352-.048q.224-.064,1.328-.24t2.672-.432q1.568-.256,3.2-.528t2.912-.464a39.739,39.739,0,0,1-3.536,5.84,51.967,51.967,0,0,1-4.144,5.008A54.309,54.309,0,0,1,142.7-4.048q-2,1.712-3.536,2.832a7,7,0,0,0-.672.576.7.7,0,0,0-.256.416.521.521,0,0,0,.048.144q.048.112.24.112A4.714,4.714,0,0,0,140.1-.576,26.717,26.717,0,0,0,143.024-2.4a40.132,40.132,0,0,0,3.808-3.072,49.525,49.525,0,0,0,4.208-4.32q.768.7,1.824,1.744t2.224,2.272q1.168,1.232,2.256,2.464T159.3-.992a3.532,3.532,0,0,0,.544.592,2.263,2.263,0,0,0,.256.176.549.549,0,0,0,.224.032,1.178,1.178,0,0,0,.9-.5,1.532,1.532,0,0,0,.416-.976,1.03,1.03,0,0,0-.16-.448,6.708,6.708,0,0,0-.672-.9q-.512-.608-1.552-1.648T156.48-7.3q-1.728-1.6-4.32-3.9a42.235,42.235,0,0,0,2.72-3.776A30.994,30.994,0,0,0,157.024-18.912Zm16.992-.224a.774.774,0,0,0-.16.512q0,.512.64.768a14.187,14.187,0,0,1,1.52.656q.88.432,1.824.96t1.744,1.04q.8.512,1.248.864a.891.891,0,0,0,.544.192.975.975,0,0,0,.912-.592,2.233,2.233,0,0,0,.3-.912.912.912,0,0,0-.512-.768,17.9,17.9,0,0,0-1.856-1.072q-1.152-.592-2.32-1.1t-2.032-.848a5.087,5.087,0,0,0-1.024-.336Q174.368-19.776,174.016-19.136ZM177.44-1.344a41.1,41.1,0,0,0,6.368-3.136,48.3,48.3,0,0,0,5.312-3.712,46.781,46.781,0,0,0,4.064-3.664,25.7,25.7,0,0,0,2.592-3.024,4.253,4.253,0,0,0,.9-1.728q0-.288-.256-.288-.512,0-1.312.992a18.669,18.669,0,0,1-1.872,1.872q-1.36,1.232-3.312,2.752T185.7-8.256a51.061,51.061,0,0,1-4.608,2.72,22.563,22.563,0,0,1-4.448,1.792,3.574,3.574,0,0,1-.576.128,3.5,3.5,0,0,1-.416.032,2.194,2.194,0,0,1-.416-.032,1.483,1.483,0,0,0-.288-.032.574.574,0,0,0-.288.1.337.337,0,0,0-.128.288,1.856,1.856,0,0,0,.3.848,4.016,4.016,0,0,0,.752.944,1.282,1.282,0,0,0,.832.416A2.5,2.5,0,0,0,177.44-1.344Z" transform="translate(642 326)" fill="#36312f"/>
    <path id="パス_10" data-name="パス 10" d="M13.216-24.736H27.872v3.616H13.216Zm13.248,0H30.4V-23.5a6.179,6.179,0,0,1-.032.72q-.1,6.048-.224,10.24t-.336,6.88A35.986,35.986,0,0,1,29.3-1.488,5.975,5.975,0,0,1,28.544.64a4.542,4.542,0,0,1-1.312,1.376,4.428,4.428,0,0,1-1.568.576,9.816,9.816,0,0,1-2.1.192q-1.232,0-2.544-.032A8.022,8.022,0,0,0,20.64.768a8.541,8.541,0,0,0-.864-1.984q1.28.1,2.336.112t1.6.016A1.462,1.462,0,0,0,24.96-1.7a4.539,4.539,0,0,0,.592-1.84q.24-1.392.416-3.984t.288-6.592q.112-4,.208-9.7Zm-8.544,1.7h3.9q-.064,2.976-.224,5.952T21.008-11.3A30.822,30.822,0,0,1,19.68-5.888a20.527,20.527,0,0,1-2.4,4.816,17,17,0,0,1-3.808,3.984,11.147,11.147,0,0,0-1.28-1.632A10.241,10.241,0,0,0,10.624-.128,14.249,14.249,0,0,0,14.1-3.584a16.712,16.712,0,0,0,2.128-4.224,24.6,24.6,0,0,0,1.088-4.8q.32-2.528.432-5.168T17.92-23.04ZM5.6-10.688,9.376-15.2V2.88H5.6ZM1.44-21.5h9.568v3.456H1.44ZM5.6-27.168H9.376v7.52H5.6Zm3.392,14.08a12.312,12.312,0,0,1,1.168.976q.752.688,1.616,1.5T13.36-9.1q.72.688,1.04,1.008L12.128-5.184q-.448-.608-1.1-1.456T9.616-8.368L8.192-10.032q-.672-.784-1.184-1.3ZM9.984-21.5h.736l.64-.16,2.144,1.44a37.681,37.681,0,0,1-2.912,5.984A38.359,38.359,0,0,1,6.736-8.864,32.385,32.385,0,0,1,2.528-4.736,7.144,7.144,0,0,0,2-5.936q-.368-.688-.752-1.344a6.148,6.148,0,0,0-.7-1.008,22.425,22.425,0,0,0,3.808-3.376A29.549,29.549,0,0,0,7.68-16.08a25.346,25.346,0,0,0,2.3-4.688Zm2.784,6.08,2.464,2.048q-1.024.992-1.92,2T11.68-9.664L9.952-11.232a23.778,23.778,0,0,0,1.488-2.016Q12.256-14.464,12.768-15.424Zm33.792.352V-9.5h5.632v-5.568Zm-3.616-3.36h13.12V-6.176H42.944Zm-7.072-7.68H63.36V2.848H59.168V-22.176h-19.3V2.848h-4ZM38.144-2.464H61.536V1.12H38.144ZM16.192,18.5H27.2v3.136H16.192Zm-5.5,18.56q1.44-.224,3.344-.544t4.048-.688q2.144-.368,4.256-.752l.32,3.328q-2.784.64-5.6,1.264t-5.12,1.1ZM14.016,12.64h3.712V37.92H14.016Zm2.176,0H28.96V27.616H16.192v-3.3h8.96V15.936h-8.96Zm6.656,12.768a28.05,28.05,0,0,0,1.664,5.328,16.145,16.145,0,0,0,2.688,4.3,11.127,11.127,0,0,0,4,2.88,11.292,11.292,0,0,0-.9.944,14.5,14.5,0,0,0-.912,1.184,9.5,9.5,0,0,0-.688,1.136,13.447,13.447,0,0,1-4.336-3.6A19.6,19.6,0,0,1,21.5,32.416a40.535,40.535,0,0,1-1.824-6.464Zm4.64,2.432L30.5,29.92q-1.312,1.28-2.768,2.512t-2.672,2.1L22.688,32.7q.768-.64,1.648-1.472T26.048,29.5Q26.88,28.608,27.488,27.84ZM2.368,12.576h7.968v3.456H5.952V41.28H2.368Zm6.912,0h.672l.544-.128,2.624,1.5q-.448,1.408-.96,2.976t-1.024,3.1q-.512,1.536-1.024,2.784a9.672,9.672,0,0,1,2.032,3.5,11.327,11.327,0,0,1,.464,3.056A8.211,8.211,0,0,1,12.256,32,3.184,3.184,0,0,1,11.1,33.6a2.976,2.976,0,0,1-.88.448,8.206,8.206,0,0,1-1.008.256,7.44,7.44,0,0,1-1.04.064h-1.2a10.888,10.888,0,0,0-.24-1.728,6.191,6.191,0,0,0-.592-1.7q.448.032.816.032h.656a1.558,1.558,0,0,0,.5-.08,2.574,2.574,0,0,0,.464-.208A1.346,1.346,0,0,0,9.008,30a3.333,3.333,0,0,0,.112-1.136,8.623,8.623,0,0,0-.464-2.576,8.645,8.645,0,0,0-1.9-3.056q.352-1.088.72-2.4t.7-2.64q.336-1.328.64-2.5T9.28,13.76Zm31.456,8.288h17.7v3.68h-17.7Zm8.864,7.68H60.384V32.16H49.6Zm-2.016-5.536h4V38.464l-4-.48Zm-7.648,3.3,4,.416a34.565,34.565,0,0,1-2.176,8.64,15.819,15.819,0,0,1-4.288,6.112,12.224,12.224,0,0,0-.9-.864q-.576-.512-1.2-.992T34.3,38.848a11.735,11.735,0,0,0,3.9-5.168A26.826,26.826,0,0,0,39.936,26.3Zm3.1,4.032a10.234,10.234,0,0,0,1.936,3.536A7.863,7.863,0,0,0,47.76,35.92a13.088,13.088,0,0,0,3.472.944,29.789,29.789,0,0,0,4,.256h3.344q1.072,0,2.192-.016l2.08-.032q.96-.016,1.6-.048a8.013,8.013,0,0,0-.56,1.168q-.272.688-.5,1.424a10.04,10.04,0,0,0-.32,1.344H55.04a31.652,31.652,0,0,1-5.12-.384,13.389,13.389,0,0,1-4.208-1.392,10.494,10.494,0,0,1-3.328-2.9A16.856,16.856,0,0,1,39.9,31.36Zm4.48-19.072h4.1v5.824h-4.1ZM35.872,14.5H63.36v8.032H59.424V18.112H39.648v4.416H35.872Z" transform="translate(519 374)" fill="#749880"/>
    <path id="パス_9" data-name="パス 9" d="M7.04,0V-11.616H21.032V-49.1H9.064v-8.8a60.123,60.123,0,0,0,8.756-2.42,38.689,38.689,0,0,0,6.908-3.388h10.56v52.1H47.344V0ZM60.28,19.36l-2.9-7.656A19.9,19.9,0,0,0,65.692,6.38,10.359,10.359,0,0,0,68.464-.792l-.264-9.68,4.752,8.1A8.138,8.138,0,0,1,70.488-.924a8.116,8.116,0,0,1-2.816.484A9.325,9.325,0,0,1,61.6-2.6a7.448,7.448,0,0,1-2.64-6.116,7.358,7.358,0,0,1,2.684-5.94,9.629,9.629,0,0,1,6.38-2.244,8.492,8.492,0,0,1,7.392,3.608Q77.968-9.68,77.968-3.256a22.29,22.29,0,0,1-4.532,13.992Q68.9,16.632,60.28,19.36Zm46.9-18.128A33.788,33.788,0,0,1,97.856.044a27.519,27.519,0,0,1-7.348-3.256,41.371,41.371,0,0,1-5.852-4.532l6.6-9.064a30.481,30.481,0,0,0,4,3.212,20.4,20.4,0,0,0,4.664,2.332,15.7,15.7,0,0,0,5.236.88,13.026,13.026,0,0,0,5.72-1.188A8.881,8.881,0,0,0,114.708-15a10.587,10.587,0,0,0,1.364-5.588q0-4.928-2.86-7.568a10.53,10.53,0,0,0-7.436-2.64,12.88,12.88,0,0,0-4.708.748,30.169,30.169,0,0,0-4.8,2.6l-6.424-4.136,1.76-32.12h35.816v12.056h-23.5l-1.056,12.408a16.606,16.606,0,0,1,3.476-1.144,19.109,19.109,0,0,1,3.828-.352,23.944,23.944,0,0,1,10.076,2.112,16.964,16.964,0,0,1,7.392,6.468q2.772,4.356,2.772,11.132A21.659,21.659,0,0,1,127.16-8.976a21.135,21.135,0,0,1-8.536,7.612A25.575,25.575,0,0,1,107.184,1.232Zm58.256,0A19.256,19.256,0,0,1,153.56-2.6a24.443,24.443,0,0,1-7.92-11.22q-2.816-7.392-2.816-18.3,0-10.824,2.816-18.084a23.6,23.6,0,0,1,7.92-10.956,19.721,19.721,0,0,1,11.88-3.7,19.668,19.668,0,0,1,11.924,3.7A23.738,23.738,0,0,1,185.24-50.2q2.816,7.26,2.816,18.084,0,10.912-2.816,18.3A24.593,24.593,0,0,1,177.364-2.6,19.2,19.2,0,0,1,165.44,1.232Zm0-11.176a6.629,6.629,0,0,0,4.664-1.892q2.024-1.892,3.212-6.732A59.854,59.854,0,0,0,174.5-32.12a58.04,58.04,0,0,0-1.188-13.42q-1.188-4.708-3.212-6.468a6.9,6.9,0,0,0-4.664-1.76,6.951,6.951,0,0,0-4.62,1.76q-2.068,1.76-3.3,6.468a56.037,56.037,0,0,0-1.232,13.42,57.786,57.786,0,0,0,1.232,13.552q1.232,4.84,3.3,6.732A6.68,6.68,0,0,0,165.44-9.944ZM222.024,1.232A19.256,19.256,0,0,1,210.144-2.6a24.443,24.443,0,0,1-7.92-11.22q-2.816-7.392-2.816-18.3,0-10.824,2.816-18.084a23.6,23.6,0,0,1,7.92-10.956,19.721,19.721,0,0,1,11.88-3.7,19.668,19.668,0,0,1,11.924,3.7A23.738,23.738,0,0,1,241.824-50.2q2.816,7.26,2.816,18.084,0,10.912-2.816,18.3A24.593,24.593,0,0,1,233.948-2.6,19.2,19.2,0,0,1,222.024,1.232Zm0-11.176a6.629,6.629,0,0,0,4.664-1.892q2.024-1.892,3.212-6.732a59.854,59.854,0,0,0,1.188-13.552A58.04,58.04,0,0,0,229.9-45.54q-1.188-4.708-3.212-6.468a6.9,6.9,0,0,0-4.664-1.76,6.951,6.951,0,0,0-4.62,1.76q-2.068,1.76-3.3,6.468a56.037,56.037,0,0,0-1.232,13.42A57.786,57.786,0,0,0,214.1-18.568q1.232,4.84,3.3,6.732A6.68,6.68,0,0,0,222.024-9.944Z" transform="translate(593 414)" fill="#749880"/>
    <path id="パス_8" data-name="パス 8" d="M3.2-31.44H34.56v4.76H8V3.56H3.2Zm29.08,0h4.84v29.4A7.722,7.722,0,0,1,36.64.98a3.393,3.393,0,0,1-1.72,1.7,8.611,8.611,0,0,1-3.1.74q-1.86.14-4.54.14A12.263,12.263,0,0,0,26.88,2q-.28-.88-.64-1.74a14.5,14.5,0,0,0-.72-1.5q1.16.08,2.34.1t2.1.02h1.28a1.317,1.317,0,0,0,.8-.26.967.967,0,0,0,.24-.74ZM5.8-16.56H34.64v4.72H5.8ZM17.48-28.84h4.8V-14.2h-4.8Z" transform="translate(849 409)" fill="#749880"/>
    <path id="パス_7" data-name="パス 7" d="M5.736,4.7A25.218,25.218,0,0,1,3.144-.948a21.552,21.552,0,0,1-.936-6.516,21.585,21.585,0,0,1,.936-6.5,25.143,25.143,0,0,1,2.592-5.664l1.344.624a20.664,20.664,0,0,0-2.292,5.532,24.232,24.232,0,0,0-.756,6.012,24.327,24.327,0,0,0,.756,6.036A20.664,20.664,0,0,0,7.08,4.1ZM20.328-19.488l1.512-.648a20.885,20.885,0,0,1,1.284,2.1A12.3,12.3,0,0,1,24-16.08l-1.584.744a12.124,12.124,0,0,0-.828-2.016A16.9,16.9,0,0,0,20.328-19.488Zm8.928-.7,1.8.672q-.576,1.056-1.236,2.184t-1.236,1.944l-1.512-.6q.384-.576.792-1.308t.78-1.488A15.04,15.04,0,0,0,29.256-20.184ZM22.56-7.872h1.8a22.872,22.872,0,0,1-.48,3.048,12.19,12.19,0,0,1-.972,2.736A8.383,8.383,0,0,1,21.216.2a9.124,9.124,0,0,1-2.688,1.74,5.057,5.057,0,0,0-.492-.72,4.435,4.435,0,0,0-.612-.648,8.085,8.085,0,0,0,2.424-1.5A6.964,6.964,0,0,0,21.336-2.9a10.091,10.091,0,0,0,.828-2.364A20.807,20.807,0,0,0,22.56-7.872Zm3.792-.216H28.1V-.72a1.15,1.15,0,0,0,.1.588q.1.132.48.132h1.608a.44.44,0,0,0,.4-.2,2.166,2.166,0,0,0,.192-.852Q30.936-1.7,30.96-3a2.028,2.028,0,0,0,.444.276,5.632,5.632,0,0,0,.588.24q.312.108.528.18A13.673,13.673,0,0,1,32.244.108,2.107,2.107,0,0,1,31.62,1.3a1.775,1.775,0,0,1-1.14.336H28.416a3.035,3.035,0,0,1-1.272-.216A1.169,1.169,0,0,1,26.52.684a4.693,4.693,0,0,1-.168-1.4ZM21.792-13.7v4.68h7.584V-13.7Zm-1.728-1.608H31.152V-7.44H20.064ZM14.4-18.168h1.776V1.872H14.4Zm-3.912,4.776h8.688v1.68H10.488Zm4.008.648,1.128.48q-.36,1.272-.888,2.628T13.6-6.948a27.991,27.991,0,0,1-1.3,2.5,13.926,13.926,0,0,1-1.38,1.98,6.8,6.8,0,0,0-.42-.84q-.276-.48-.516-.816A12.188,12.188,0,0,0,11.3-5.856q.648-1.008,1.26-2.184t1.116-2.388A20.758,20.758,0,0,0,14.5-12.744Zm3.48-7.08,1.248,1.392a24.69,24.69,0,0,1-2.52.816q-1.416.384-2.916.66t-2.916.468a3.122,3.122,0,0,0-.216-.684q-.168-.4-.312-.684,1.344-.24,2.772-.528t2.7-.66A15.98,15.98,0,0,0,17.976-19.824Zm-1.9,9.5q.24.216.708.684t1.02,1.008q.552.54,1,1.02t.636.7L18.36-5.5q-.216-.36-.612-.912t-.876-1.176q-.48-.624-.912-1.152t-.72-.84Zm28.152-8.616h5.04v1.7h-5.04Zm3.936,0h1.968a48.857,48.857,0,0,0,.72,5.172,22.4,22.4,0,0,0,1.332,4.44,13.618,13.618,0,0,0,2.136,3.516A10.138,10.138,0,0,0,57.408-3.36a2.664,2.664,0,0,0-.48.36q-.264.24-.516.5t-.42.48A11.388,11.388,0,0,1,52.86-4.668a14.732,14.732,0,0,1-2.172-3.648,24.048,24.048,0,0,1-1.368-4.512,49.38,49.38,0,0,1-.768-5.244h-.384Zm.1,4.632,1.848.288a23.888,23.888,0,0,1-2.556,7.08,15.27,15.27,0,0,1-4.4,4.92,3.59,3.59,0,0,0-.372-.42q-.252-.252-.54-.5t-.5-.42a12.394,12.394,0,0,0,4.236-4.464A21.433,21.433,0,0,0,48.264-14.3ZM40.8-10.68v8.5H39.048V-9h-3.36v-1.68Zm0,7.7a5.21,5.21,0,0,0,2.4,1.968,10.2,10.2,0,0,0,3.624.72q.984.048,2.388.06T52.164-.24q1.548-.024,2.988-.072t2.52-.12a2.794,2.794,0,0,0-.24.528q-.12.336-.216.684t-.144.612q-.984.048-2.328.072T51.96,1.5q-1.44.012-2.8,0t-2.34-.036A12.1,12.1,0,0,1,42.8.7a6.832,6.832,0,0,1-2.82-2.112Q39.12-.648,38.208.132t-1.9,1.6L35.376-.12q.864-.576,1.86-1.332t1.932-1.524ZM35.952-18.5l1.32-1.08A17.545,17.545,0,0,1,38.88-18.42q.816.66,1.5,1.332A11.273,11.273,0,0,1,41.5-15.84l-1.44,1.2a7.726,7.726,0,0,0-1.044-1.272q-.684-.7-1.488-1.38A19.392,19.392,0,0,0,35.952-18.5ZM62.088,4.7,60.72,4.1a20.494,20.494,0,0,0,2.328-5.532,23.968,23.968,0,0,0,.768-6.036,23.874,23.874,0,0,0-.768-6.012,20.494,20.494,0,0,0-2.328-5.532l1.368-.624a24.173,24.173,0,0,1,2.6,5.664,21.844,21.844,0,0,1,.924,6.5,21.812,21.812,0,0,1-.924,6.516A24.239,24.239,0,0,1,62.088,4.7Z" transform="translate(897 407)" fill="#749880"/>
  </g>
</svg>
